<?xml version="1.0" standalone="no"?>
<!DOCTYPE svg PUBLIC "-//W3C//DTD SVG 20010904//EN"
 "http://www.w3.org/TR/2001/REC-SVG-20010904/DTD/svg10.dtd">
<svg version="1.0" xmlns="http://www.w3.org/2000/svg"
 width="360.000000pt" height="345.000000pt" viewBox="0 0 360.000000 345.000000"
 preserveAspectRatio="xMidYMid meet">

<g transform="translate(0.000000,345.000000) scale(0.100000,-0.100000)"
fill="#fff" stroke="none">
<path d="M1760 3230 c-243 -25 -474 -89 -689 -191 -210 -100 -357 -204 -498
-352 -200 -212 -296 -437 -297 -692 0 -148 18 -223 84 -361 151 -313 481 -543
940 -654 138 -34 347 -35 441 -2 75 26 145 80 165 129 60 142 -58 304 -316
433 -154 78 -320 210 -405 323 -341 452 -48 956 631 1087 140 27 349 42 474
35 266 -15 567 -66 797 -134 54 -17 99 -28 101 -27 1 2 -30 26 -70 53 -261
179 -560 294 -893 343 -101 14 -366 20 -465 10z"/>
<path d="M2053 2470 c-158 -33 -253 -129 -240 -240 7 -56 26 -102 40 -93 6 3
7 1 3 -6 -10 -16 42 -80 107 -129 29 -23 100 -67 158 -98 163 -89 246 -149
349 -253 147 -149 208 -271 217 -436 7 -113 -8 -184 -57 -283 -71 -142 -163
-224 -361 -323 -231 -116 -441 -162 -734 -162 -274 0 -550 40 -865 127 -69 19
-126 33 -128 31 -9 -8 238 -156 351 -210 289 -138 548 -196 877 -197 193 -1
298 10 470 48 469 105 859 356 1069 690 94 148 151 335 151 493 0 467 -379
854 -990 1012 -90 23 -143 31 -245 34 -71 2 -149 0 -172 -5z"/>
</g>
</svg>
